# xmcd
#
# Track frame offsets:
#	150
#	13527
#	26675
#	37877
#	49195
#	60127
#	72812
#	83047
#	95777
#	111367
#	122397
#	132452
#	145482
#	157230
#
# Disc length: 2257 seconds
#
# Revision: 1
# Processed by: cddbd v1.4PL0 Copyright (c) Steve Scherf et al.
# Submitted via: dBpowerAMP V4.0
#
DISCID=bc08cf0e
DTITLE=Howlin' Wolf - Howlin' Wolf Blue Album
DYEAR=1900
DGENRE=Blues
TTITLE0=Tell Me
TTITLE1=Moanin' at Midnight
TTITLE2=The Red Rooster
TTITLE3=You'll be Mine
TTITLE4=Who's Been Talking'
TTITLE5=Little Baby
TTITLE6=Shake For Me
TTITLE7=Spoonful
TTITLE8=Going Down Slow
TTITLE9=Wang Dang Doodle
TTITLE10=Down in The Bottom
TTITLE11=Back Door Man
TTITLE12=Howlin' For my Baby
TTITLE13=How Many More Years
EXTD=
EXTT0=
EXTT1=
EXTT2=
EXTT3=
EXTT4=
EXTT5=
EXTT6=
EXTT7=
EXTT8=
EXTT9=
EXTT10=
EXTT11=
EXTT12=
EXTT13=
PLAYORDER=
